<?xml version="1.0" encoding="iso-8859-1"?>
<!-- Uploaded to: SVG Repo, www.svgrepo.com, Generator: SVG Repo Mixer Tools -->
<svg height="800px" width="800px" version="1.1" id="Layer_1" xmlns="http://www.w3.org/2000/svg" xmlns:xlink="http://www.w3.org/1999/xlink" 
	 viewBox="0 0 512 512" xml:space="preserve">
<circle style="fill:#FFD15D;" cx="256" cy="256" r="256"/>
<path style="fill:#F9B54C;" d="M262.606,511.915c126.28-3.198,229.814-97.847,246.901-220.189L337.168,119.387l-72.566,160.322
	L147.187,396.497L262.606,511.915z"/>
<ellipse style="fill:#FFFFFF;" cx="256" cy="384" rx="113.778" ry="42.667"/>
<path style="fill:#E6F3FF;" d="M369.778,384c0-23.564-50.94-42.667-113.778-42.667v85.333
	C318.838,426.667,369.778,407.564,369.778,384z"/>
<circle style="fill:#C1321F;" cx="256" cy="199.111" r="113.778"/>
<path style="fill:#A82116;" d="M369.778,199.111c0-62.838-50.94-113.778-113.778-113.778v227.556
	C318.838,312.889,369.778,261.949,369.778,199.111z"/>
<circle style="fill:#E6F3FF;" cx="256" cy="199.111" r="85.333"/>
<path style="fill:#CFDBE6;" d="M341.333,199.111c0-47.128-38.205-85.333-85.333-85.333v170.667
	C303.128,284.444,341.333,246.239,341.333,199.111z"/>
<circle style="fill:#F1543F;" cx="256" cy="199.111" r="68.956"/>
<path style="fill:#C1321F;" d="M324.956,199.111c0-38.083-30.873-68.956-68.956-68.956v137.912
	C294.083,268.067,324.956,237.194,324.956,199.111z"/>
<path style="fill:#5FBA45;" d="M257.724,398.222L257.724,398.222c-39.274,0-71.111-31.837-71.111-71.111v-28.444
	c0-39.274,31.837-71.111,71.111-71.111l0,0c39.274,0,71.111,31.837,71.111,71.111v28.444
	C328.835,366.385,296.998,398.222,257.724,398.222z"/>
<path style="fill:#51AF3A;" d="M257.724,227.556L257.724,227.556c-0.578,0-1.148,0.029-1.724,0.043v170.579
	c0.574,0.014,1.145,0.043,1.724,0.043l0,0c39.274,0,71.111-31.837,71.111-71.111v-28.444
	C328.835,259.393,296.998,227.556,257.724,227.556z"/>
<path style="fill:#FD8469;" d="M257.724,373.226c-9.506,0-17.239-7.733-17.239-17.239h6.896c0,5.704,4.639,10.343,10.343,10.343
	c5.704,0,10.343-4.639,10.343-10.343h6.896C274.963,365.492,267.23,373.226,257.724,373.226z"/>
<path style="fill:#FC6F58;" d="M268.067,355.987c0,5.704-4.639,10.343-10.343,10.343c-0.588,0-1.162-0.06-1.724-0.155v6.965
	c0.567,0.057,1.141,0.088,1.724,0.088c9.506,0,17.239-7.733,17.239-17.239h-6.896V355.987z"/>
<g>
	<circle style="fill:#324A5E;" cx="227.125" cy="330.128" r="5.172"/>
	<circle style="fill:#324A5E;" cx="288.323" cy="330.128" r="5.172"/>
</g>
<polygon style="fill:#FFD15D;" points="270.222,312.889 256,328.404 241.778,312.889 241.778,256 270.222,256 "/>
<polygon style="fill:#F9B54C;" points="270.222,256 256,256 256,328.404 270.222,312.889 "/>
<path style="fill:#FEE187;" d="M328.835,312.889c-49.705-60.337-68.956-28.444-68.956-28.444h-4.31c0,0-19.251-31.892-68.956,28.444
	l-15.946-85.333L256,199.111l85.333,28.444L328.835,312.889z"/>
<path style="fill:#FFD300;" d="M256,199.111v85.333h3.879c0,0,19.251-31.892,68.956,28.444l12.498-85.333L256,199.111z"/>
<path style="fill:#FC6F58;" d="M260.349,268.929h-4.832c0,0-20.278-33.59-72.271,25.943l3.367,18.017
	c49.705-60.337,68.956-28.444,68.956-28.444h4.31c0,0,19.251-31.892,68.956,28.444l2.801-19.127
	C280.374,235.78,260.349,268.929,260.349,268.929z"/>
<path style="fill:#F1543F;" d="M260.349,268.929H256v15.515h3.879c0,0,19.251-31.892,68.956,28.444l2.801-19.127
	C280.374,235.78,260.349,268.929,260.349,268.929z"/>
<g>
	<circle style="fill:#D83E20;" cx="184.889" cy="327.111" r="14.222"/>
	<circle style="fill:#D83E20;" cx="184.889" cy="298.667" r="14.222"/>
</g>
<circle style="fill:#C1321F;" cx="327.111" cy="327.111" r="14.222"/>
<circle style="fill:#FC6F58;" cx="174.839" cy="241.778" r="16.234"/>
<circle style="fill:#F1543F;" cx="337.161" cy="241.778" r="16.234"/>
<circle style="fill:#C1321F;" cx="327.111" cy="298.667" r="14.222"/>
<ellipse style="fill:#F9B54C;" cx="256" cy="215.057" rx="55.139" ry="31.508"/>
<path style="fill:#F4A200;" d="M311.139,215.057c0-17.401-24.686-31.508-55.137-31.508v63.016
	C286.453,246.565,311.139,232.458,311.139,215.057z"/>
<path style="fill:#C1321F;" d="M236.175,155.582c0-10.949,19.825-39.65,19.825-39.65s19.825,28.701,19.825,39.65
	s-8.876,19.825-19.825,19.825C245.051,175.407,236.175,166.531,236.175,155.582z"/>
<path style="fill:#A82116;" d="M275.825,155.582c0-10.947-19.813-39.633-19.825-39.65v59.475
	C266.949,175.407,275.825,166.531,275.825,155.582z"/>
<ellipse style="fill:#FEE187;" cx="256" cy="181.872" rx="30.168" ry="17.239"/>
<path style="fill:#FFD300;" d="M286.168,181.872c0-9.521-13.507-17.239-30.168-17.239v34.478
	C272.662,199.111,286.168,191.393,286.168,181.872z"/>
</svg>